<mxfile host="app.diagrams.net" agent="Mozilla/5.0 (X11; Ubuntu; Linux x86_64; rv:136.0) Gecko/20100101 Firefox/136.0" version="26.2.4">
  <diagram name="Page-1" id="B6gtU3eYQol23JJfoaB7">
    <mxGraphModel dx="1190" dy="633" grid="1" gridSize="10" guides="1" tooltips="1" connect="1" arrows="1" fold="1" page="1" pageScale="1" pageWidth="850" pageHeight="1100" math="0" shadow="0">
      <root>
        <mxCell id="0" />
        <mxCell id="1" parent="0" />
        <mxCell id="kZaUd7Zv_o38RQ934Uc_-1" value="1" style="ellipse;whiteSpace=wrap;html=1;aspect=fixed;" vertex="1" parent="1">
          <mxGeometry x="385" y="90" width="80" height="80" as="geometry" />
        </mxCell>
        <mxCell id="kZaUd7Zv_o38RQ934Uc_-2" value="10" style="ellipse;whiteSpace=wrap;html=1;aspect=fixed;strokeColor=light-dark(#000000,#FFFFFF);" vertex="1" parent="1">
          <mxGeometry x="210" y="150" width="80" height="80" as="geometry" />
        </mxCell>
        <mxCell id="kZaUd7Zv_o38RQ934Uc_-3" value="2" style="ellipse;whiteSpace=wrap;html=1;aspect=fixed;strokeColor=light-dark(#000000,#FFFFFF);" vertex="1" parent="1">
          <mxGeometry x="550" y="150" width="80" height="80" as="geometry" />
        </mxCell>
        <mxCell id="kZaUd7Zv_o38RQ934Uc_-4" value="9" style="ellipse;whiteSpace=wrap;html=1;aspect=fixed;" vertex="1" parent="1">
          <mxGeometry x="70" y="280" width="80" height="80" as="geometry" />
        </mxCell>
        <mxCell id="kZaUd7Zv_o38RQ934Uc_-5" value="3" style="ellipse;whiteSpace=wrap;html=1;aspect=fixed;strokeColor=light-dark(#000000,#FFFFFF);" vertex="1" parent="1">
          <mxGeometry x="620" y="230" width="80" height="80" as="geometry" />
        </mxCell>
        <mxCell id="kZaUd7Zv_o38RQ934Uc_-6" value="7" style="ellipse;whiteSpace=wrap;html=1;aspect=fixed;strokeColor=light-dark(#000000,#FFFFFF);" vertex="1" parent="1">
          <mxGeometry x="180" y="490" width="80" height="80" as="geometry" />
        </mxCell>
        <mxCell id="kZaUd7Zv_o38RQ934Uc_-7" value="6" style="ellipse;whiteSpace=wrap;html=1;aspect=fixed;strokeColor=light-dark(#000000,#FFFFFF);" vertex="1" parent="1">
          <mxGeometry x="330" y="520" width="80" height="80" as="geometry" />
        </mxCell>
        <mxCell id="kZaUd7Zv_o38RQ934Uc_-8" value="5" style="ellipse;whiteSpace=wrap;html=1;aspect=fixed;strokeColor=light-dark(#000000,#FFFFFF);" vertex="1" parent="1">
          <mxGeometry x="530" y="530" width="80" height="80" as="geometry" />
        </mxCell>
        <mxCell id="kZaUd7Zv_o38RQ934Uc_-9" value="4" style="ellipse;whiteSpace=wrap;html=1;aspect=fixed;strokeColor=light-dark(#000000,#FFFFFF);" vertex="1" parent="1">
          <mxGeometry x="640" y="330" width="80" height="80" as="geometry" />
        </mxCell>
        <mxCell id="kZaUd7Zv_o38RQ934Uc_-10" value="8" style="ellipse;whiteSpace=wrap;html=1;aspect=fixed;" vertex="1" parent="1">
          <mxGeometry x="100" y="390" width="80" height="80" as="geometry" />
        </mxCell>
        <mxCell id="kZaUd7Zv_o38RQ934Uc_-11" value="" style="endArrow=none;html=1;rounded=0;exitX=0.5;exitY=0;exitDx=0;exitDy=0;entryX=0.5;entryY=1;entryDx=0;entryDy=0;strokeColor=light-dark(#000000,#FF8000);" edge="1" parent="1" source="kZaUd7Zv_o38RQ934Uc_-8" target="kZaUd7Zv_o38RQ934Uc_-1">
          <mxGeometry width="50" height="50" relative="1" as="geometry">
            <mxPoint x="380" y="220" as="sourcePoint" />
            <mxPoint x="430" y="170" as="targetPoint" />
          </mxGeometry>
        </mxCell>
        <mxCell id="kZaUd7Zv_o38RQ934Uc_-12" value="" style="endArrow=none;html=1;rounded=0;entryX=0.5;entryY=1;entryDx=0;entryDy=0;exitX=1;exitY=1;exitDx=0;exitDy=0;strokeColor=light-dark(#000000,#FF8000);" edge="1" parent="1" source="kZaUd7Zv_o38RQ934Uc_-2" target="kZaUd7Zv_o38RQ934Uc_-1">
          <mxGeometry width="50" height="50" relative="1" as="geometry">
            <mxPoint x="360" y="220" as="sourcePoint" />
            <mxPoint x="410" y="170" as="targetPoint" />
          </mxGeometry>
        </mxCell>
        <mxCell id="kZaUd7Zv_o38RQ934Uc_-13" value="" style="endArrow=none;html=1;rounded=0;entryX=0;entryY=1;entryDx=0;entryDy=0;exitX=0.638;exitY=0;exitDx=0;exitDy=0;exitPerimeter=0;fontColor=light-dark(default, #1a5fb4);labelBackgroundColor=light-dark(#FFFFFF,#0000FF);strokeColor=light-dark(#000000,#0000CC);" edge="1" parent="1" source="kZaUd7Zv_o38RQ934Uc_-8" target="kZaUd7Zv_o38RQ934Uc_-3">
          <mxGeometry width="50" height="50" relative="1" as="geometry">
            <mxPoint x="340" y="320" as="sourcePoint" />
            <mxPoint x="390" y="270" as="targetPoint" />
          </mxGeometry>
        </mxCell>
        <mxCell id="kZaUd7Zv_o38RQ934Uc_-14" value="" style="endArrow=none;html=1;rounded=0;entryX=0;entryY=1;entryDx=0;entryDy=0;exitX=0.5;exitY=0;exitDx=0;exitDy=0;strokeColor=light-dark(#000000,#FF0000);" edge="1" parent="1" source="kZaUd7Zv_o38RQ934Uc_-7" target="kZaUd7Zv_o38RQ934Uc_-3">
          <mxGeometry width="50" height="50" relative="1" as="geometry">
            <mxPoint x="380" y="340" as="sourcePoint" />
            <mxPoint x="430" y="290" as="targetPoint" />
          </mxGeometry>
        </mxCell>
        <mxCell id="kZaUd7Zv_o38RQ934Uc_-15" value="" style="endArrow=none;html=1;rounded=0;entryX=0;entryY=1;entryDx=0;entryDy=0;exitX=1;exitY=1;exitDx=0;exitDy=0;strokeColor=light-dark(#000000,#FF0000);" edge="1" parent="1" source="kZaUd7Zv_o38RQ934Uc_-2" target="kZaUd7Zv_o38RQ934Uc_-3">
          <mxGeometry width="50" height="50" relative="1" as="geometry">
            <mxPoint x="490" y="270" as="sourcePoint" />
            <mxPoint x="540" y="220" as="targetPoint" />
          </mxGeometry>
        </mxCell>
        <mxCell id="kZaUd7Zv_o38RQ934Uc_-16" value="" style="endArrow=none;html=1;rounded=0;entryX=0;entryY=0.5;entryDx=0;entryDy=0;exitX=0.5;exitY=0;exitDx=0;exitDy=0;strokeColor=light-dark(#000000,#FFFF00);" edge="1" parent="1" source="kZaUd7Zv_o38RQ934Uc_-8" target="kZaUd7Zv_o38RQ934Uc_-5">
          <mxGeometry width="50" height="50" relative="1" as="geometry">
            <mxPoint x="600" y="370" as="sourcePoint" />
            <mxPoint x="650" y="320" as="targetPoint" />
          </mxGeometry>
        </mxCell>
        <mxCell id="kZaUd7Zv_o38RQ934Uc_-19" value="" style="endArrow=none;html=1;rounded=0;entryX=0;entryY=0.5;entryDx=0;entryDy=0;exitX=0.75;exitY=0.013;exitDx=0;exitDy=0;exitPerimeter=0;strokeColor=light-dark(#000000,#00FF00);" edge="1" parent="1" source="kZaUd7Zv_o38RQ934Uc_-7" target="kZaUd7Zv_o38RQ934Uc_-5">
          <mxGeometry width="50" height="50" relative="1" as="geometry">
            <mxPoint x="360" y="420" as="sourcePoint" />
            <mxPoint x="410" y="370" as="targetPoint" />
          </mxGeometry>
        </mxCell>
        <mxCell id="kZaUd7Zv_o38RQ934Uc_-20" value="" style="endArrow=none;html=1;rounded=0;entryX=0;entryY=0.5;entryDx=0;entryDy=0;exitX=0.5;exitY=0;exitDx=0;exitDy=0;strokeColor=light-dark(#000000,#00FFFF);" edge="1" parent="1" source="kZaUd7Zv_o38RQ934Uc_-6" target="kZaUd7Zv_o38RQ934Uc_-5">
          <mxGeometry width="50" height="50" relative="1" as="geometry">
            <mxPoint x="310" y="440" as="sourcePoint" />
            <mxPoint x="360" y="390" as="targetPoint" />
          </mxGeometry>
        </mxCell>
        <mxCell id="kZaUd7Zv_o38RQ934Uc_-21" value="" style="endArrow=none;html=1;rounded=0;entryX=0;entryY=0.5;entryDx=0;entryDy=0;exitX=1;exitY=0;exitDx=0;exitDy=0;strokeColor=light-dark(#000000,#00FFFF);" edge="1" parent="1" source="kZaUd7Zv_o38RQ934Uc_-10" target="kZaUd7Zv_o38RQ934Uc_-5">
          <mxGeometry width="50" height="50" relative="1" as="geometry">
            <mxPoint x="240" y="460" as="sourcePoint" />
            <mxPoint x="670" y="330" as="targetPoint" />
          </mxGeometry>
        </mxCell>
        <mxCell id="kZaUd7Zv_o38RQ934Uc_-22" value="" style="endArrow=none;html=1;rounded=0;entryX=0;entryY=0.5;entryDx=0;entryDy=0;exitX=1;exitY=0.5;exitDx=0;exitDy=0;strokeColor=light-dark(#000000,#FFFF00);" edge="1" parent="1" source="kZaUd7Zv_o38RQ934Uc_-4" target="kZaUd7Zv_o38RQ934Uc_-5">
          <mxGeometry width="50" height="50" relative="1" as="geometry">
            <mxPoint x="250" y="470" as="sourcePoint" />
            <mxPoint x="680" y="340" as="targetPoint" />
          </mxGeometry>
        </mxCell>
        <mxCell id="kZaUd7Zv_o38RQ934Uc_-23" value="" style="endArrow=none;html=1;rounded=0;entryX=0;entryY=0;entryDx=0;entryDy=0;exitX=1;exitY=0.5;exitDx=0;exitDy=0;strokeColor=light-dark(#000000,#FFFFFF);" edge="1" parent="1" source="kZaUd7Zv_o38RQ934Uc_-4" target="kZaUd7Zv_o38RQ934Uc_-9">
          <mxGeometry width="50" height="50" relative="1" as="geometry">
            <mxPoint x="320" y="320" as="sourcePoint" />
            <mxPoint x="370" y="270" as="targetPoint" />
          </mxGeometry>
        </mxCell>
        <mxCell id="kZaUd7Zv_o38RQ934Uc_-24" value="" style="endArrow=none;html=1;rounded=0;entryX=0.425;entryY=0.013;entryDx=0;entryDy=0;entryPerimeter=0;exitX=1;exitY=0.5;exitDx=0;exitDy=0;strokeColor=light-dark(#000000,#FFFF00);" edge="1" parent="1" source="kZaUd7Zv_o38RQ934Uc_-4" target="kZaUd7Zv_o38RQ934Uc_-8">
          <mxGeometry width="50" height="50" relative="1" as="geometry">
            <mxPoint x="340" y="310" as="sourcePoint" />
            <mxPoint x="390" y="260" as="targetPoint" />
          </mxGeometry>
        </mxCell>
        <mxCell id="kZaUd7Zv_o38RQ934Uc_-25" value="" style="endArrow=none;html=1;rounded=0;entryX=0.5;entryY=0;entryDx=0;entryDy=0;exitX=0.5;exitY=1;exitDx=0;exitDy=0;strokeColor=light-dark(#000000,#FF8000);" edge="1" parent="1" source="kZaUd7Zv_o38RQ934Uc_-2" target="kZaUd7Zv_o38RQ934Uc_-8">
          <mxGeometry width="50" height="50" relative="1" as="geometry">
            <mxPoint x="160" y="330" as="sourcePoint" />
            <mxPoint x="554" y="471" as="targetPoint" />
          </mxGeometry>
        </mxCell>
        <mxCell id="kZaUd7Zv_o38RQ934Uc_-26" value="" style="endArrow=none;html=1;rounded=0;entryX=0.5;entryY=0;entryDx=0;entryDy=0;exitX=1;exitY=0.5;exitDx=0;exitDy=0;strokeColor=light-dark(#000000,#00FF00);" edge="1" parent="1" source="kZaUd7Zv_o38RQ934Uc_-4" target="kZaUd7Zv_o38RQ934Uc_-7">
          <mxGeometry width="50" height="50" relative="1" as="geometry">
            <mxPoint x="170" y="340" as="sourcePoint" />
            <mxPoint x="564" y="481" as="targetPoint" />
          </mxGeometry>
        </mxCell>
        <mxCell id="kZaUd7Zv_o38RQ934Uc_-27" value="" style="endArrow=none;html=1;rounded=0;entryX=0.5;entryY=0;entryDx=0;entryDy=0;exitX=0.5;exitY=1;exitDx=0;exitDy=0;strokeColor=light-dark(#000000,#FF0000);" edge="1" parent="1" source="kZaUd7Zv_o38RQ934Uc_-2" target="kZaUd7Zv_o38RQ934Uc_-7">
          <mxGeometry width="50" height="50" relative="1" as="geometry">
            <mxPoint x="160" y="330" as="sourcePoint" />
            <mxPoint x="410" y="500" as="targetPoint" />
          </mxGeometry>
        </mxCell>
        <mxCell id="kZaUd7Zv_o38RQ934Uc_-28" value="" style="endArrow=none;html=1;rounded=0;entryX=1;entryY=0.5;entryDx=0;entryDy=0;exitX=0.5;exitY=0;exitDx=0;exitDy=0;strokeColor=light-dark(#000000,#00FFFF);" edge="1" parent="1" source="kZaUd7Zv_o38RQ934Uc_-6" target="kZaUd7Zv_o38RQ934Uc_-10">
          <mxGeometry width="50" height="50" relative="1" as="geometry">
            <mxPoint x="170" y="340" as="sourcePoint" />
            <mxPoint x="420" y="510" as="targetPoint" />
          </mxGeometry>
        </mxCell>
      </root>
    </mxGraphModel>
  </diagram>
</mxfile>
